<svg xmlns="http://www.w3.org/2000/svg" viewBox="0 0 1200 400" width="1200" height="400">
  <defs>
    <linearGradient id="bg" x1="0" y1="0" x2="1" y2="1">
      <stop offset="0%" stop-color="#0F2D42"/>
      <stop offset="50%" stop-color="#1B4965"/>
      <stop offset="100%" stop-color="#0F2D42"/>
    </linearGradient>
    <radialGradient id="glow" cx="30%" cy="50%" r="40%">
      <stop offset="0%" stop-color="#E8A838" stop-opacity="0.06"/>
      <stop offset="100%" stop-color="#E8A838" stop-opacity="0"/>
    </radialGradient>
    <radialGradient id="ng" cx="50%" cy="50%" r="50%">
      <stop offset="0%" stop-color="#F0C060" stop-opacity="0.5"/>
      <stop offset="100%" stop-color="#E8A838" stop-opacity="0"/>
    </radialGradient>
  </defs>

  <rect width="1200" height="400" fill="url(#bg)"/>
  <rect width="1200" height="400" fill="url(#glow)"/>

  <!-- Africa — left side -->
  <g transform="translate(280,200)">
    <path d="M-95,-160 L-50,-168 L-13,-172 L20,-175 L47,-170 L73,-160 L91,-147
             L100,-127 L104,-107 L107,-87 L105,-70 L110,-47 L108,-23 L104,-7
             L110,10 L103,27 L113,40 L110,56 L104,73 L93,83 L80,91
             L60,104 L40,113 L16,127 L0,136 L-11,144
             L-24,133 L-29,117 L-37,104 L-43,87
             L-47,67 L-50,47 L-53,23 L-57,0
             L-60,-20 L-69,-37 L-83,-51 L-96,-67
             L-103,-80 L-107,-100 L-103,-120 L-95,-140 L-95,-160Z"
          fill="#E8A838" fill-opacity="0.06" stroke="#E8A838" stroke-width="3" stroke-linejoin="round"/>
    <!-- Madagascar -->
    <ellipse cx="117" cy="64" rx="11" ry="24" fill="#E8A838" fill-opacity="0.04" stroke="#E8A838" stroke-width="1.5" transform="rotate(12,117,64)"/>
  </g>

  <!-- Connections -->
  <g stroke="#E8A838" stroke-linecap="round" opacity="0.45">
    <line x1="315" y1="252" x2="273" y2="60" stroke-width="2.5"/>
    <line x1="315" y1="252" x2="190" y2="215" stroke-width="2.5"/>
    <line x1="315" y1="252" x2="298" y2="145" stroke-width="2.5"/>
    <line x1="315" y1="252" x2="398" y2="118" stroke-width="2.5"/>
    <line x1="315" y1="252" x2="260" y2="315" stroke-width="2.5"/>
    <line x1="315" y1="252" x2="345" y2="340" stroke-width="2.5"/>
    <line x1="315" y1="252" x2="265" y2="385" stroke-width="2.5"/>
    <line x1="315" y1="252" x2="180" y2="140" stroke-width="2.5"/>
    <line x1="273" y1="60" x2="190" y2="215" stroke-width="1.8"/>
    <line x1="273" y1="60" x2="298" y2="145" stroke-width="1.8"/>
    <line x1="190" y1="215" x2="180" y2="140" stroke-width="1.8"/>
    <line x1="190" y1="215" x2="260" y2="315" stroke-width="1.8"/>
    <line x1="260" y1="315" x2="345" y2="340" stroke-width="1.8"/>
    <line x1="345" y1="340" x2="265" y2="385" stroke-width="1.8"/>
    <line x1="398" y1="118" x2="298" y2="145" stroke-width="1.8"/>
    <line x1="398" y1="118" x2="345" y2="340" stroke-width="1.8"/>
  </g>

  <!-- Nodes -->
  <circle cx="273" cy="60" r="9" fill="#E8A838"/>
  <circle cx="180" cy="140" r="8" fill="#E8A838"/>
  <circle cx="190" cy="215" r="9" fill="#E8A838"/>
  <circle cx="298" cy="145" r="8" fill="#E8A838"/>
  <circle cx="398" cy="118" r="8" fill="#E8A838"/>
  <circle cx="260" cy="315" r="8.5" fill="#E8A838"/>
  <circle cx="345" cy="340" r="8.5" fill="#E8A838"/>
  <circle cx="265" cy="385" r="8" fill="#E8A838"/>
  <!-- Nairobi HQ -->
  <circle cx="315" cy="252" r="26" fill="url(#ng)"/>
  <circle cx="315" cy="252" r="15" fill="#F0C060" stroke="#FFFFFF" stroke-width="3"/>

  <!-- Text — right side -->
  <text x="780" y="175" text-anchor="middle" font-family="'Segoe UI','Helvetica Neue',Arial,sans-serif" font-size="72" font-weight="700" fill="#FFFFFF" letter-spacing="8">ANGAVU</text>
  <text x="780" y="220" text-anchor="middle" font-family="'Segoe UI','Helvetica Neue',Arial,sans-serif" font-size="28" font-weight="300" fill="#E8A838" letter-spacing="12" opacity="0.85">INTELLIGENCE</text>
  <line x1="630" y1="240" x2="930" y2="240" stroke="#E8A838" stroke-width="1.5" opacity="0.3"/>
  <text x="780" y="280" text-anchor="middle" font-family="'Segoe UI','Helvetica Neue',Arial,sans-serif" font-size="16" font-weight="400" fill="#FFFFFF" opacity="0.5" letter-spacing="2">Africa-Powered AI · Kenya HQ</text>
</svg>
