<svg xmlns="http://www.w3.org/2000/svg" viewBox="0 0 48 48" width="48" height="48">
  <defs>
    <linearGradient id="bg" x1="0" y1="0" x2="1" y2="1">
      <stop offset="0%" stop-color="#1B4965"/>
      <stop offset="100%" stop-color="#0F2D42"/>
    </linearGradient>
    <clipPath id="r"><rect width="48" height="48" rx="8" ry="8"/></clipPath>
  </defs>
  <g clip-path="url(#r)">
    <rect width="48" height="48" fill="url(#bg)"/>
    <!-- Africa — ultra simplified, bold -->
    <g transform="translate(24,19)">
      <path d="M-7,-12 L-4,-12.5 L-1,-13 L2,-13.5 L5,-13 L7,-12
               L8,-10 L9,-8 L9,-6 L9,-4 L10,-2 L9.5,0 L9,2
               L9.5,3 L9,5 L10,7 L9.5,9 L9,11
               L7,13 L5,14.5 L3,16 L1,17.5 L-1,18
               L-3,16 L-4,13 L-5,10 L-5.5,7
               L-6,4 L-6,0 L-6.5,-3
               L-7.5,-5 L-8.5,-7 L-9,-9 L-8.5,-11 L-7,-12Z"
            fill="#E8A838" fill-opacity="0.1" stroke="#E8A838" stroke-width="1.5" stroke-linejoin="round"/>
    </g>
    <!-- Connections -->
    <g stroke="#E8A838" stroke-linecap="round" opacity="0.45" stroke-width="1.2">
      <line x1="26" y1="23" x2="23" y2="10"/>
      <line x1="26" y1="23" x2="17" y2="19"/>
      <line x1="26" y1="23" x2="25" y2="17"/>
      <line x1="26" y1="23" x2="32" y2="15"/>
      <line x1="26" y1="23" x2="22" y2="28"/>
      <line x1="26" y1="23" x2="29" y2="30"/>
      <line x1="26" y1="23" x2="22" y2="34"/>
      <line x1="26" y1="23" x2="16" y2="15"/>
    </g>
    <!-- Nodes -->
    <circle cx="23" cy="10" r="2.5" fill="#E8A838"/>
    <circle cx="16" cy="15" r="2" fill="#E8A838"/>
    <circle cx="17" cy="19" r="2" fill="#E8A838"/>
    <circle cx="25" cy="17" r="2" fill="#E8A838"/>
    <circle cx="32" cy="15" r="2" fill="#E8A838"/>
    <circle cx="22" cy="28" r="2" fill="#E8A838"/>
    <circle cx="29" cy="30" r="2" fill="#E8A838"/>
    <circle cx="22" cy="34" r="2" fill="#E8A838"/>
    <!-- Nairobi HQ — prominent -->
    <circle cx="26" cy="23" r="4.5" fill="#F0C060" stroke="#FFFFFF" stroke-width="1.2"/>
  </g>
  <rect x="0.5" y="0.5" width="47" height="47" rx="8" ry="8" fill="none" stroke="#E8A838" stroke-width="0.5" opacity="0.1"/>
</svg>
