<svg xmlns="http://www.w3.org/2000/svg" viewBox="0 0 512 512" width="192" height="192">
  <defs>
    <radialGradient id="bg" cx="50%" cy="50%" r="50%">
      <stop offset="0%" stop-color="#1a2744"/>
      <stop offset="100%" stop-color="#0F172A"/>
    </radialGradient>
  </defs>

  <rect width="512" height="512" rx="64" fill="url(#bg)"/>

  <!-- Connection lines -->
  <g stroke="#F59E0B" stroke-width="2.5" opacity="0.7" fill="none">
    <line x1="256" y1="80" x2="210" y2="140"/>
    <line x1="256" y1="80" x2="310" y2="130"/>
    <line x1="210" y1="140" x2="310" y2="130"/>
    <line x1="210" y1="140" x2="160" y2="220"/>
    <line x1="310" y1="130" x2="350" y2="200"/>
    <line x1="210" y1="140" x2="260" y2="250"/>
    <line x1="310" y1="130" x2="260" y2="250"/>
    <line x1="160" y1="220" x2="260" y2="250"/>
    <line x1="350" y1="200" x2="260" y2="250"/>
    <line x1="160" y1="220" x2="200" y2="310"/>
    <line x1="260" y1="250" x2="200" y2="310"/>
    <line x1="260" y1="250" x2="310" y2="300"/>
    <line x1="350" y1="200" x2="310" y2="300"/>
    <line x1="200" y1="310" x2="250" y2="380"/>
    <line x1="310" y1="300" x2="250" y2="380"/>
    <line x1="260" y1="250" x2="250" y2="380"/>
    <line x1="310" y1="300" x2="370" y2="310"/>
    <line x1="350" y1="200" x2="370" y2="310"/>
    <line x1="160" y1="220" x2="150" y2="260"/>
    <line x1="150" y1="260" x2="200" y2="310"/>
  </g>

  <!-- Nodes -->
  <g>
    <circle cx="256" cy="80" r="12" fill="#22C55E"/>
    <circle cx="210" cy="140" r="10" fill="#22C55E"/>
    <circle cx="310" cy="130" r="10" fill="#22C55E"/>
    <circle cx="160" cy="220" r="9" fill="#22C55E"/>
    <circle cx="350" cy="200" r="9" fill="#22C55E"/>
    <circle cx="150" cy="260" r="7" fill="#22C55E"/>
    <circle cx="260" cy="250" r="11" fill="#22C55E"/>
    <circle cx="200" cy="310" r="9" fill="#22C55E"/>
    <circle cx="310" cy="300" r="8" fill="#22C55E"/>
    <circle cx="250" cy="380" r="10" fill="#22C55E"/>
    <circle cx="370" cy="310" r="7" fill="#F59E0B"/>
  </g>

  <!-- Accent -->
  <circle cx="260" cy="250" r="4" fill="#F59E0B"/>
</svg>
