<svg xmlns="http://www.w3.org/2000/svg" viewBox="0 0 192 192" width="192" height="192">
  <defs>
    <linearGradient id="bg" x1="0" y1="0" x2="1" y2="1">
      <stop offset="0%" stop-color="#1B4965"/>
      <stop offset="100%" stop-color="#0F2D42"/>
    </linearGradient>
    <radialGradient id="ng" cx="50%" cy="50%" r="50%">
      <stop offset="0%" stop-color="#F0C060" stop-opacity="0.5"/>
      <stop offset="100%" stop-color="#E8A838" stop-opacity="0"/>
    </radialGradient>
    <clipPath id="r"><rect width="192" height="192" rx="28" ry="28"/></clipPath>
  </defs>
  <g clip-path="url(#r)">
    <rect width="192" height="192" fill="url(#bg)"/>
    <!-- Africa -->
    <g transform="translate(96,78)">
      <path d="M-28,-48 L-15,-50 L-4,-51 L6,-52 L14,-51 L22,-48 L27,-44
               L30,-38 L32,-32 L33,-26 L32,-21 L34,-14 L33,-7 L31,-2
               L33,3 L31,8 L34,12 L33,17 L31,22 L28,25 L24,27
               L18,31 L12,34 L5,38 L0,41 L-3,43
               L-7,40 L-9,35 L-11,31 L-13,26 L-14,20
               L-15,14 L-16,7 L-17,0 L-18,-6
               L-21,-11 L-25,-15 L-29,-19 L-31,-24
               L-32,-30 L-31,-36 L-29,-42 L-28,-48Z"
            fill="#E8A838" fill-opacity="0.08" stroke="#E8A838" stroke-width="2.5" stroke-linejoin="round"/>
    </g>
    <!-- Connections -->
    <g stroke="#E8A838" stroke-linecap="round" opacity="0.5">
      <line x1="104" y1="95" x2="93" y2="42" stroke-width="1.8"/>
      <line x1="104" y1="95" x2="67" y2="81" stroke-width="1.8"/>
      <line x1="104" y1="95" x2="99" y2="70" stroke-width="1.8"/>
      <line x1="104" y1="95" x2="126" y2="60" stroke-width="1.8"/>
      <line x1="104" y1="95" x2="88" y2="111" stroke-width="1.8"/>
      <line x1="104" y1="95" x2="113" y2="118" stroke-width="1.8"/>
      <line x1="104" y1="95" x2="89" y2="136" stroke-width="1.8"/>
      <line x1="104" y1="95" x2="65" y2="62" stroke-width="1.8"/>
      <line x1="93" y1="42" x2="67" y2="81" stroke-width="1.2"/>
      <line x1="93" y1="42" x2="99" y2="70" stroke-width="1.2"/>
      <line x1="67" y1="81" x2="65" y2="62" stroke-width="1.2"/>
      <line x1="67" y1="81" x2="88" y2="111" stroke-width="1.2"/>
      <line x1="88" y1="111" x2="113" y2="118" stroke-width="1.2"/>
      <line x1="113" y1="118" x2="89" y2="136" stroke-width="1.2"/>
      <line x1="126" y1="60" x2="99" y2="70" stroke-width="1.2"/>
      <line x1="126" y1="60" x2="113" y2="118" stroke-width="1.2"/>
    </g>
    <!-- Nodes -->
    <circle cx="93" cy="42" r="5" fill="#E8A838"/>
    <circle cx="65" cy="62" r="4.5" fill="#E8A838"/>
    <circle cx="67" cy="81" r="5" fill="#E8A838"/>
    <circle cx="99" cy="70" r="4.5" fill="#E8A838"/>
    <circle cx="126" cy="60" r="4.5" fill="#E8A838"/>
    <circle cx="88" cy="111" r="4.5" fill="#E8A838"/>
    <circle cx="113" cy="118" r="4.5" fill="#E8A838"/>
    <circle cx="89" cy="136" r="4.5" fill="#E8A838"/>
    <!-- Nairobi HQ -->
    <circle cx="104" cy="95" r="14" fill="url(#ng)"/>
    <circle cx="104" cy="95" r="8" fill="#F0C060" stroke="#FFFFFF" stroke-width="2"/>
    <!-- Text -->
    <text x="96" y="162" text-anchor="middle" font-family="'Segoe UI',Arial,sans-serif" font-size="20" font-weight="700" fill="#FFFFFF" letter-spacing="3">ANGAVU</text>
    <text x="96" y="178" text-anchor="middle" font-family="'Segoe UI',Arial,sans-serif" font-size="9" font-weight="300" fill="#E8A838" letter-spacing="4" opacity="0.85">INTELLIGENCE</text>
  </g>
  <rect x="1" y="1" width="190" height="190" rx="28" ry="28" fill="none" stroke="#E8A838" stroke-width="1" opacity="0.12"/>
</svg>
