<svg xmlns="http://www.w3.org/2000/svg" viewBox="0 0 48 48" width="48" height="48">
  <defs>
    <linearGradient id="bg" x1="0" y1="0" x2="1" y2="1">
      <stop offset="0%" stop-color="#1B4965"/>
      <stop offset="100%" stop-color="#0F2D42"/>
    </linearGradient>
  </defs>
  <rect width="48" height="48" rx="8" ry="8" fill="url(#bg)"/>
  <!-- Eye of Africa for48px -->
  <!-- Eye shape -->
  <path d="M6,24 Q6,12 24,12 Q42,12 42,24 Q42,36 24,36 Q6,36 6,24 Z" fill="#E8A838" opacity="0.25"/>
  <!-- Africa silhouette -->
  <path d="M20,14 L26,13.5 L30,14.5 L31,18 L30.5,21 L33,23 L31.5,25.5 L29,28 L26,30.5 L24,31 L22,29.5 L21,26 L20.5,23 L21,21 L20,19.5 L18.5,17 Z" fill="#D09030" opacity="0.45"/>
  <!-- Iris outer -->
  <circle cx="27" cy="22" r="6" fill="#D09030"/>
  <!-- Iris inner -->
  <circle cx="27" cy="22" r="4.5" fill="#F5C842"/>
  <!-- Pupil -->
  <circle cx="27" cy="22" r="2" fill="#1B4965"/>
  <!-- Highlight -->
  <circle cx="29" cy="20" r="1.2" fill="#FFFFFF" opacity="0.7"/>
</svg>
