<svg xmlns="http://www.w3.org/2000/svg" viewBox="0 0 192 192" width="192" height="192">
  <defs>
    <linearGradient id="bgGrad" x1="0%" y1="0%" x2="100%" y2="100%">
      <stop offset="0%" stop-color="#1B4965"/>
      <stop offset="100%" stop-color="#0F2D42"/>
    </linearGradient>
  </defs>
  <rect width="192" height="192" rx="32" ry="32" fill="url(#bgGrad)"/>
  <!-- Eye of Africa for192px -->
  <!-- Eye shape — gold almond outline -->
  <path d="M24,96 Q24,48 96,48 Q168,48 168,96 Q168,144 96,144 Q24,144 24,96 Z" fill="#E8A838" opacity="0.2"/>
  <!-- Top eyelid arcs -->
  <path d="M32,96 Q32,56 96,56 Q160,56 160,96" fill="none" stroke="#E8A838" stroke-width="3" opacity="0.3"/>
  <path d="M40,96 Q40,62 96,62 Q152,62 152,96" fill="none" stroke="#E8A838" stroke-width="3.5" opacity="0.5"/>
  <path d="M48,96 Q48,68 96,68 Q144,68 144,96" fill="none" stroke="#E8A838" stroke-width="4" opacity="0.7"/>
  <!-- Africa silhouette -->
  <g transform="translate(88,72) scale(1.2)">
    <path d="M-12,-20 L0,-22 L10,-20 L16,-16 L18,-8 L17,0 L22,8 L18,16 L12,26 L4,34 L-2,28 L-6,18 L-8,8 L-10,0 L-14,-8 L-16,-16 Z" fill="#D09030" opacity="0.35"/>
  </g>
  <!-- Iris outer ring -->
  <circle cx="104" cy="88" r="24" fill="#D09030"/>
  <!-- Iris inner -->
  <circle cx="104" cy="88" r="18" fill="#F5C842"/>
  <!-- Pupil -->
  <circle cx="104" cy="88" r="7" fill="#1B4965"/>
  <!-- Highlights -->
  <circle cx="112" cy="80" r="4" fill="#FFFFFF" opacity="0.5"/>
  <circle cx="96" cy="96" r="2" fill="#FFFFFF" opacity="0.25"/>
</svg>
