<svg xmlns="http://www.w3.org/2000/svg" viewBox="0 0 32 32" width="32" height="32">
  <defs>
    <linearGradient id="bg" x1="0" y1="0" x2="1" y2="1">
      <stop offset="0%" stop-color="#1B4965"/>
      <stop offset="100%" stop-color="#0F2D42"/>
    </linearGradient>
  </defs>
  <rect width="32" height="32" rx="6" ry="6" fill="url(#bg)"/>
  <!-- Eye of Africa — ultra minimal for32px -->
  <!-- Eye shape -->
  <path d="M4,16 Q4,8 16,8 Q28,8 28,16 Q28,24 16,24 Q4,24 4,16 Z" fill="#E8A838" opacity="0.3"/>
  <!-- Africa silhouette (simplified) -->
  <path d="M13,10 L17,9.5 L20,10 L21,12 L20.5,14 L22,15.5 L21,17 L19,19 L17,20.5 L15,19 L14,17 L13.5,15 L14,14 L13,13 L12,11.5 Z" fill="#D09030" opacity="0.5"/>
  <!-- Iris -->
  <circle cx="18" cy="15" r="4" fill="#D09030"/>
  <circle cx="18" cy="15" r="3" fill="#F5C842"/>
  <!-- Pupil -->
  <circle cx="18" cy="15" r="1.5" fill="#1B4965"/>
  <!-- Highlight -->
  <circle cx="19.5" cy="13.5" r="0.8" fill="#FFFFFF" opacity="0.7"/>
</svg>
