<svg xmlns="http://www.w3.org/2000/svg" viewBox="0 0 32 32" width="32" height="32">
  <defs>
    <linearGradient id="bg" x1="0" y1="0" x2="1" y2="1">
      <stop offset="0%" stop-color="#1B4965"/>
      <stop offset="100%" stop-color="#0F2D42"/>
    </linearGradient>
  </defs>
  <rect width="32" height="32" rx="6" ry="6" fill="url(#bg)"/>
  <!-- Africa — ultra minimal for 32px -->
  <g transform="translate(16,12)">
    <path d="M-5,-8 L-3,-8.5 L0,-9 L2,-8.5 L4,-8 L5.5,-7
             L6,-5.5 L6.5,-4 L6.5,-2 L7,-1 L6.5,1 L6,3
             L6.5,4 L6,6 L5,8 L3,10 L1,11.5 L-1,12
             L-2.5,10 L-3,8 L-3.5,5 L-4,2
             L-4.5,-1 L-5,-3 L-5.5,-5 L-5,-8Z"
          fill="#E8A838" fill-opacity="0.12" stroke="#E8A838" stroke-width="1.2" stroke-linejoin="round"/>
  </g>
  <!-- Connections from Nairobi -->
  <g stroke="#E8A838" stroke-linecap="round" opacity="0.4" stroke-width="0.8">
    <line x1="17.5" y1="14" x2="15" y2="6"/>
    <line x1="17.5" y1="14" x2="11" y2="12"/>
    <line x1="17.5" y1="14" x2="17" y2="9"/>
    <line x1="17.5" y1="14" x2="22" y2="8"/>
    <line x1="17.5" y1="14" x2="15" y2="19"/>
    <line x1="17.5" y1="14" x2="20" y2="20"/>
  </g>
  <!-- Nodes -->
  <circle cx="15" cy="6" r="1.8" fill="#E8A838"/>
  <circle cx="11" cy="12" r="1.5" fill="#E8A838"/>
  <circle cx="17" cy="9" r="1.5" fill="#E8A838"/>
  <circle cx="22" cy="8" r="1.5" fill="#E8A838"/>
  <circle cx="15" cy="19" r="1.5" fill="#E8A838"/>
  <circle cx="20" cy="20" r="1.5" fill="#E8A838"/>
  <!-- Nairobi HQ -->
  <circle cx="17.5" cy="14" r="3.5" fill="#F0C060" stroke="#FFFFFF" stroke-width="1"/>
  <rect x="0.5" y="0.5" width="31" height="31" rx="6" ry="6" fill="none" stroke="#E8A838" stroke-width="0.5" opacity="0.1"/>
</svg>
