<svg xmlns="http://www.w3.org/2000/svg" viewBox="0 0 32 32" width="32" height="32">
  <rect width="32" height="32" rx="6" fill="#0F2D42"/>

  <!-- Neural network Africa — simplified -->
  <g stroke="#E8A838" stroke-width="0.6" opacity="0.4" fill="none">
    <line x1="16" y1="3" x2="12" y2="6"/>
    <line x1="16" y1="3" x2="19" y2="5.5"/>
    <line x1="12" y1="6" x2="19" y2="5.5"/>
    <line x1="12" y1="6" x2="9" y2="10"/>
    <line x1="19" y1="5.5" x2="22" y2="9.5"/>
    <line x1="12" y1="6" x2="16" y2="9.5"/>
    <line x1="19" y1="5.5" x2="16" y2="9.5"/>
    <line x1="9" y1="10" x2="16" y2="9.5"/>
    <line x1="22" y1="9.5" x2="16" y2="9.5"/>
    <line x1="9" y1="10" x2="8" y2="14"/>
    <line x1="22" y1="9.5" x2="23" y2="14"/>
    <line x1="16" y1="9.5" x2="8" y2="14"/>
    <line x1="16" y1="9.5" x2="23" y2="14"/>
    <line x1="9" y1="10" x2="23" y2="14"/>
    <line x1="8" y1="14" x2="23" y2="14"/>
    <line x1="8" y1="14" x2="11" y2="18"/>
    <line x1="23" y1="14" x2="20" y2="18"/>
    <line x1="8" y1="14" x2="15" y2="18.5"/>
    <line x1="23" y1="14" x2="15" y2="18.5"/>
    <line x1="11" y1="18" x2="15" y2="18.5"/>
    <line x1="20" y1="18" x2="15" y2="18.5"/>
    <line x1="15" y1="18.5" x2="12" y2="23"/>
    <line x1="15" y1="18.5" x2="18" y2="22"/>
    <line x1="11" y1="18" x2="12" y2="23"/>
    <line x1="20" y1="18" x2="18" y2="22"/>
    <line x1="12" y1="23" x2="18" y2="22"/>
    <line x1="12" y1="23" x2="14" y2="27"/>
    <line x1="18" y1="22" x2="14" y2="27"/>
    <line x1="12" y1="23" x2="16" y2="26"/>
    <line x1="18" y1="22" x2="16" y2="26"/>
    <line x1="14" y1="27" x2="16" y2="26"/>
    <line x1="20" y1="18" x2="24" y2="20"/>
    <line x1="18" y1="22" x2="24" y2="20"/>
    <line x1="16" y1="3" x2="9" y2="10"/>
    <line x1="9" y1="10" x2="11" y2="18"/>
    <line x1="8" y1="14" x2="6" y2="16"/>
    <line x1="6" y1="16" x2="11" y2="18"/>
  </g>

  <!-- 18 Nodes -->
  <circle cx="16" cy="3" r="1.5" fill="#E8A838"/>
  <circle cx="12" cy="6" r="1.3" fill="#E8A838"/>
  <circle cx="19" cy="5.5" r="1.3" fill="#E8A838"/>
  <circle cx="6" cy="16" r="1.1" fill="#E8A838"/>
  <circle cx="8" cy="14" r="1.2" fill="#E8A838"/>
  <circle cx="9" cy="10" r="1.1" fill="#E8A838"/>
  <circle cx="22" cy="9.5" r="1.1" fill="#E8A838"/>
  <circle cx="16" cy="9.5" r="1.5" fill="#E8A838"/>
  <circle cx="11" cy="18" r="1.3" fill="#E8A838"/>
  <circle cx="23" cy="14" r="1.3" fill="#E8A838"/>
  <circle cx="15" cy="18.5" r="1.5" fill="#E8A838"/>
  <!-- ★ KENYA HQ -->
  <circle cx="15" cy="18.5" r="2.5" fill="#F0C060" stroke="#FFFFFF" stroke-width="0.5"/>
  <circle cx="12" cy="23" r="1.3" fill="#E8A838"/>
  <circle cx="18" cy="22" r="1.3" fill="#E8A838"/>
  <circle cx="24" cy="20" r="1" fill="#E8A838"/>
  <circle cx="14" cy="27" r="1.2" fill="#E8A838"/>
  <circle cx="16" cy="26" r="1.2" fill="#E8A838"/>
  <circle cx="16" cy="26" r="1.5" fill="#E8A838"/>
  <circle cx="14" cy="27" r="1.2" fill="#E8A838"/>
</svg>