<svg xmlns="http://www.w3.org/2000/svg" viewBox="0 0 128 128" width="128" height="128">
  <defs>
    <linearGradient id="bg" x1="0" y1="0" x2="1" y2="1">
      <stop offset="0%" stop-color="#1B4965"/>
      <stop offset="100%" stop-color="#0F2D42"/>
    </linearGradient>
    <radialGradient id="ng" cx="50%" cy="50%" r="50%">
      <stop offset="0%" stop-color="#F0C060" stop-opacity="0.5"/>
      <stop offset="100%" stop-color="#E8A838" stop-opacity="0"/>
    </radialGradient>
    <clipPath id="r"><rect width="128" height="128" rx="18" ry="18"/></clipPath>
  </defs>
  <g clip-path="url(#r)">
    <rect width="128" height="128" fill="url(#bg)"/>
    <g transform="translate(64,52)">
      <path d="M-19,-32 L-10,-33.5 L-3,-34.5 L4,-35 L10,-34 L15,-32 L18,-29
               L20,-25 L21.5,-21 L22,-17 L21.5,-13 L22.5,-9 L22,-5 L21,-1.5
               L22,2 L21,5 L23,8 L22.5,11 L21,15 L19,17 L16,19
               L12,22 L8,24 L3.5,27 L0,29 L-2,30
               L-5,28 L-6,24 L-7.5,21 L-9,17
               L-10,13 L-10.5,9 L-11,5 L-12,0
               L-12.5,-4 L-14,-7.5 L-17,-10 L-19.5,-13.5
               L-21,-16 L-22,-20 L-21,-24 L-19,-28 L-19,-32Z"
            fill="#E8A838" fill-opacity="0.08" stroke="#E8A838" stroke-width="2" stroke-linejoin="round"/>
    </g>
    <g stroke="#E8A838" stroke-linecap="round" opacity="0.5">
      <line x1="68" y1="59" x2="59" y2="24" stroke-width="1.5"/>
      <line x1="68" y1="59" x2="45" y2="47" stroke-width="1.5"/>
      <line x1="68" y1="59" x2="66" y2="39" stroke-width="1.5"/>
      <line x1="68" y1="59" x2="84" y2="35" stroke-width="1.5"/>
      <line x1="68" y1="59" x2="58" y2="70" stroke-width="1.5"/>
      <line x1="68" y1="59" x2="76" y2="73" stroke-width="1.5"/>
      <line x1="68" y1="59" x2="58" y2="84" stroke-width="1.5"/>
      <line x1="68" y1="59" x2="43" y2="35" stroke-width="1.5"/>
      <line x1="59" y1="24" x2="45" y2="47" stroke-width="1"/>
      <line x1="59" y1="24" x2="66" y2="39" stroke-width="1"/>
      <line x1="45" y1="47" x2="43" y2="35" stroke-width="1"/>
      <line x1="45" y1="47" x2="58" y2="70" stroke-width="1"/>
      <line x1="58" y1="70" x2="76" y2="73" stroke-width="1"/>
      <line x1="76" y1="73" x2="58" y2="84" stroke-width="1"/>
      <line x1="84" y1="35" x2="66" y2="39" stroke-width="1"/>
      <line x1="84" y1="35" x2="76" y2="73" stroke-width="1"/>
    </g>
    <circle cx="59" cy="24" r="4" fill="#E8A838"/>
    <circle cx="43" cy="35" r="3.5" fill="#E8A838"/>
    <circle cx="45" cy="47" r="4" fill="#E8A838"/>
    <circle cx="66" cy="39" r="3.5" fill="#E8A838"/>
    <circle cx="84" cy="35" r="3.5" fill="#E8A838"/>
    <circle cx="58" cy="70" r="3.5" fill="#E8A838"/>
    <circle cx="76" cy="73" r="3.5" fill="#E8A838"/>
    <circle cx="58" cy="84" r="3.5" fill="#E8A838"/>
    <circle cx="68" cy="59" r="11" fill="url(#ng)"/>
    <circle cx="68" cy="59" r="7" fill="#F0C060" stroke="#FFFFFF" stroke-width="1.5"/>
  </g>
  <rect x="0.5" y="0.5" width="127" height="127" rx="18" ry="18" fill="none" stroke="#E8A838" stroke-width="0.8" opacity="0.1"/>
</svg>
