<svg xmlns="http://www.w3.org/2000/svg" viewBox="0 0 1200 320" width="1200" height="320">
  <defs>
    <linearGradient id="bg" x1="0" y1="0" x2="1" y2="1">
      <stop offset="0%" stop-color="#0F2D42"/>
      <stop offset="50%" stop-color="#1B4965"/>
      <stop offset="100%" stop-color="#0F2D42"/>
    </linearGradient>
    <radialGradient id="glow" cx="18%" cy="50%" r="30%">
      <stop offset="0%" stop-color="#E8A838" stop-opacity="0.08"/>
      <stop offset="100%" stop-color="#E8A838" stop-opacity="0"/>
    </radialGradient>
    <radialGradient id="ng" cx="50%" cy="50%" r="50%">
      <stop offset="0%" stop-color="#F0C060" stop-opacity="0.5"/>
      <stop offset="100%" stop-color="#E8A838" stop-opacity="0"/>
    </radialGradient>
  </defs>

  <rect width="1200" height="320" fill="url(#bg)"/>
  <rect width="1200" height="320" fill="url(#glow)"/>

  <!-- Africa icon — compact left -->
  <g transform="translate(160,140) scale(0.85)">
    <path d="M-95,-160 L-50,-168 L-13,-172 L20,-175 L47,-170 L73,-160 L91,-147
             L100,-127 L104,-107 L107,-87 L105,-70 L110,-47 L108,-23 L104,-7
             L110,10 L103,27 L113,40 L110,56 L104,73 L93,83 L80,91
             L60,104 L40,113 L16,127 L0,136 L-11,144
             L-24,133 L-29,117 L-37,104 L-43,87
             L-47,67 L-50,47 L-53,23 L-57,0
             L-60,-20 L-69,-37 L-83,-51 L-96,-67
             L-103,-80 L-107,-100 L-103,-120 L-95,-140 L-95,-160Z"
          fill="#E8A838" fill-opacity="0.06" stroke="#E8A838" stroke-width="2.5" stroke-linejoin="round"/>
    <g stroke="#E8A838" stroke-linecap="round" opacity="0.45">
      <line x1="0" y1="-10" x2="-42" y2="-140" stroke-width="2"/>
      <line x1="0" y1="-10" x2="-75" y2="-15" stroke-width="2"/>
      <line x1="0" y1="-10" x2="-35" y2="70" stroke-width="2"/>
      <line x1="0" y1="-10" x2="45" y2="-80" stroke-width="2"/>
      <line x1="0" y1="-10" x2="80" y2="-20" stroke-width="2"/>
      <line x1="0" y1="-10" x2="-25" y2="100" stroke-width="2"/>
      <line x1="0" y1="-10" x2="30" y2="110" stroke-width="2"/>
    </g>
    <circle cx="-42" cy="-140" r="7" fill="#E8A838"/>
    <circle cx="-75" cy="-15" r="6" fill="#E8A838"/>
    <circle cx="-50" cy="50" r="7" fill="#E8A838"/>
    <circle cx="25" y="-60" r="6" fill="#E8A838"/>
    <circle cx="80" cy="-20" r="6" fill="#E8A838"/>
    <circle cx="-25" cy="100" r="6" fill="#E8A838"/>
    <circle cx="30" cy="110" r="6" fill="#E8A838"/>
    <circle cx="0" cy="-10" r="20" fill="url(#ng)"/>
    <circle cx="0" cy="-10" r="12" fill="#F0C060" stroke="#FFFFFF" stroke-width="2.5"/>
  </g>

  <!-- Text — right side -->
  <text x="750" y="135" text-anchor="middle" font-family="'Segoe UI','Helvetica Neue',Arial,sans-serif" font-size="64" font-weight="700" fill="#FFFFFF" letter-spacing="7">ANGAVU</text>
  <text x="750" y="175" text-anchor="middle" font-family="'Segoe UI','Helvetica Neue',Arial,sans-serif" font-size="24" font-weight="300" fill="#E8A838" letter-spacing="10" opacity="0.85">INTELLIGENCE</text>
  <line x1="610" y1="192" x2="890" y2="192" stroke="#E8A838" stroke-width="1.2" opacity="0.3"/>
  <text x="750" y="225" text-anchor="middle" font-family="'Segoe UI','Helvetica Neue',Arial,sans-serif" font-size="14" font-weight="400" fill="#FFFFFF" opacity="0.45" letter-spacing="2">Africa-Powered AI · Kenya HQ</text>
</svg>
